<?xml version="1.0" standalone="no"?>
<!DOCTYPE svg PUBLIC "-//W3C//DTD SVG 20010904//EN"
 "http://www.w3.org/TR/2001/REC-SVG-20010904/DTD/svg10.dtd">
<svg version="1.0" xmlns="http://www.w3.org/2000/svg"
 width="700.000000pt" height="700.000000pt" viewBox="0 0 700.000000 700.000000"
 preserveAspectRatio="xMidYMid meet">
<metadata>
Created by potrace 1.14, written by Peter Selinger 2001-2017
</metadata>
<g transform="translate(0.000000,700.000000) scale(0.100000,-0.100000)"
fill="#000000" stroke="none">
<path d="M5620 6544 c-47 -7 -107 -16 -134 -19 -27 -4 -56 -8 -65 -10 -9 -1
-41 -6 -72 -9 -31 -4 -65 -8 -75 -10 -21 -4 -94 -16 -134 -21 -14 -2 -50 -7
-80 -10 -30 -3 -62 -8 -70 -10 -8 -2 -35 -7 -60 -10 -25 -3 -56 -8 -70 -10
-14 -2 -50 -7 -80 -10 -30 -3 -62 -8 -70 -10 -8 -2 -35 -7 -60 -10 -25 -3 -56
-8 -70 -10 -14 -2 -47 -7 -75 -10 -27 -3 -90 -12 -140 -20 -49 -7 -112 -16
-140 -20 -27 -3 -75 -10 -105 -15 -30 -5 -77 -12 -105 -15 -27 -3 -61 -7 -75
-10 -34 -5 -110 -16 -140 -20 -14 -2 -45 -6 -70 -10 -77 -11 -94 -14 -140 -20
-25 -3 -52 -8 -60 -10 -8 -2 -40 -6 -71 -10 -31 -3 -65 -7 -75 -9 -17 -3 -85
-13 -139 -20 -11 -2 -38 -6 -60 -9 -22 -4 -60 -9 -85 -12 -25 -3 -56 -8 -70
-10 -14 -2 -41 -6 -60 -9 -48 -6 -189 -26 -220 -31 -14 -3 -45 -7 -70 -10 -25
-3 -54 -7 -65 -9 -11 -2 -45 -7 -75 -11 -30 -4 -64 -9 -74 -11 -11 -2 -40 -6
-65 -9 -25 -3 -55 -7 -67 -9 -12 -2 -45 -7 -74 -11 -29 -4 -62 -9 -74 -11 -12
-2 -48 -7 -81 -10 -33 -4 -69 -10 -80 -14 -22 -8 -17 6 -215 -610 -50 -157
-108 -334 -128 -395 -20 -60 -37 -114 -38 -120 -1 -5 -26 -86 -57 -180 -117
-360 -147 -453 -147 -462 0 -5 37 -27 83 -48 45 -21 206 -99 357 -173 151 -74
329 -160 395 -192 66 -32 215 -104 330 -160 116 -56 278 -135 360 -175 342
-165 610 -297 613 -300 2 -2 -35 -124 -83 -272 -48 -147 -105 -320 -125 -383
-21 -63 -69 -212 -108 -330 -105 -320 -325 -997 -457 -1405 -64 -198 -119
-367 -122 -375 -3 -8 -7 -19 -9 -25 -2 -5 -19 -59 -38 -119 l-35 -109 41 44
c22 24 127 134 233 244 106 110 216 225 245 255 29 30 136 142 239 248 102
107 208 217 235 245 27 29 103 108 170 177 67 69 173 180 236 246 63 66 210
219 326 340 116 120 231 239 254 264 23 25 133 139 244 254 110 115 219 228
241 251 63 67 402 419 524 545 61 63 111 120 111 125 0 6 -118 40 -263 77
-144 38 -332 86 -417 108 -171 45 -514 134 -830 215 -113 29 -268 70 -345 90
-77 20 -207 54 -290 75 -82 21 -213 55 -290 75 -385 100 -496 129 -564 145
-40 11 -75 20 -76 22 -4 3 50 44 465 352 124 92 236 176 250 186 14 11 144
108 290 216 346 257 626 465 670 499 32 24 386 287 442 328 13 10 111 82 218
162 107 80 229 171 270 201 326 242 500 374 488 373 -7 -1 -51 -7 -98 -15z"/>
</g>
</svg>
