<?xml version="1.0" encoding="utf-8"?>
<!-- Generator: Adobe Illustrator 21.0.0, SVG Export Plug-In . SVG Version: 6.00 Build 0)  -->
<svg version="1.1" id="Capa_1" xmlns="http://www.w3.org/2000/svg" xmlns:xlink="http://www.w3.org/1999/xlink" x="0px" y="0px"
	 viewBox="0 0 500 200" style="enable-background:new 0 0 500 200;" xml:space="preserve">
<style type="text/css">
	.st0{stroke:#FFFFFF;stroke-width:6;stroke-miterlimit:10;}
	.st1{fill:#F43737;stroke:#FFFFFF;stroke-width:4;stroke-miterlimit:10;}
</style>
<g>
	<path class="st0" d="M114.6,84.5c0-6.7,1.7-11.5,5-14.4c3.4-2.9,8.8-4.4,16.4-4.4c5.3,0,9.5,1.4,12.8,4.1c3.2,2.7,5.6,6.9,7,12.6
		l-9.6,7.2h-5l11.1-8.3c-1.4-4.6-3.5-7.8-6.2-9.7c-2.7-1.9-6.1-2.8-10-2.8c-2.7,0-5.1,0.2-6.9,0.5c-1.9,0.3-3.8,1-5.7,2
		c-1.9,1-3.3,2.6-4.3,4.8c-1,2.2-1.4,5-1.4,8.4c0,3,1.4,5.7,4.2,8c2.8,2.3,6.2,4.3,10.1,6c4,1.6,8,3.3,12,5s7.4,3.9,10.2,6.6
		s4.2,5.8,4.2,9.3c0,6.9-1.7,12-5.1,15.3c-3.4,3.4-9.2,5-17.4,5c-6.7,0-12-1.4-15.8-4.1c-3.8-2.7-6.5-6.9-7.9-12.6l2.9-1.2
		c1.4,5.6,3.7,9.4,7,11.6s7.9,3.2,13.8,3.2c6.6,0,11.5-1.3,14.7-3.8s4.8-7,4.8-13.5c0-3-1.4-5.7-4.2-8s-6.2-4.3-10.2-6
		c-4-1.6-8-3.3-12-5s-7.4-3.9-10.1-6.6C116,91.1,114.6,88,114.6,84.5z"/>
	<path class="st0" d="M217.3,66.7v3.1h-24.2v68.9H190V69.8h-24.2v-3.1C165.8,66.7,217.3,66.7,217.3,66.7z"/>
	<path class="st0" d="M265.9,101h-30.6l31.5-31.3H232v65.9h40v3.1h-43v-72h45.4L242.9,98H266v3H265.9z"/>
	<path class="st0" d="M296.3,135.6h28.4l-12.5-34.2l5.8-3.3c4.7-2.6,7.1-6.8,7.1-12.5c0-10.6-8.1-16-24.3-16h-9.5v68.9h-3.1v-72
		h12.6c9.1,0,15.9,1.7,20.5,5s6.9,8,6.9,14c0,6.9-2.9,11.9-8.6,15.1l-3.5,2l13.1,35.9h-32.8v-2.9H296.3z"/>
	<path class="st0" d="M384.9,132c-3.8,5.2-9.9,7.8-18.3,7.8s-14.5-2.6-18.3-7.8s-5.7-13.3-5.7-24.2V97.6c0-11,1.9-19.1,5.7-24.2
		c3.8-5.2,9.9-7.8,18.3-7.8s14.5,2.6,18.3,7.8c3.8,5.2,5.7,13.3,5.7,24.2v10.1C390.6,118.7,388.7,126.8,384.9,132z M375.2,70
		c-2.4-0.9-5.3-1.3-8.6-1.3c-3.4,0-6.2,0.4-8.6,1.3s-4.6,2.3-6.5,4.4s-3.4,5-4.3,8.9c-1,3.9-1.4,8.7-1.4,14.4v10.1
		c0,5.7,0.5,10.5,1.4,14.4c1,3.9,2.4,6.8,4.3,8.9s4.1,3.5,6.5,4.4s5.3,1.3,8.6,1.3c3.4,0,6.2-0.4,8.6-1.3c2.4-0.9,4.6-2.3,6.5-4.4
		c1.9-2.1,3.4-5,4.3-8.9c1-3.9,1.4-8.7,1.4-14.4V97.6c0-5.7-0.5-10.5-1.4-14.4c-1-3.9-2.4-6.8-4.3-8.9
		C379.8,72.3,377.6,70.9,375.2,70z"/>
	<path class="st0" d="M411.8,138.7h-3.1v-72h3.1V138.7z"/>
	<path class="st0" d="M442,138.7h-9.9v-72h9.9c9.9,0,18.2,3.6,25.1,10.9s10.3,15.6,10.3,25.1s-3.4,17.8-10.3,25.1
		C460.3,135.1,451.9,138.7,442,138.7z M442,135.6c9,0,16.6-3.3,22.9-9.9s9.4-14.3,9.4-23s-3.1-16.4-9.4-23S451,69.8,442,69.8h-6.8
		v65.9h6.8V135.6z"/>
</g>
<path class="st1" d="M45.3,153L94,102.1L36.8,87.3l54-40.3c-19.8,2.8-39.5,5.7-59.3,8.5c-3.2,9.9-6.4,19.8-9.5,29.7l39.2,19.1
	L45.3,153z"/>
</svg>
